<svg width="140" height="141" viewBox="0 0 140 141" fill="none" xmlns="http://www.w3.org/2000/svg">
<path fill-rule="evenodd" clip-rule="evenodd" d="M35.5 0.482262C24.555 1.30626 17.634 4.49026 10.584 11.9443C7.728 14.9633 4.179 20.0223 2.696 23.1863L0 28.9393V70.4613V111.982L3.274 118.632C7.361 126.933 15.251 134.409 23.253 137.563C28.351 139.573 31.173 139.873 48.25 140.226L67.5 140.623V114.531V88.4393H59.071C48.312 88.4393 47.5 87.7373 47.5 78.4393C47.5 69.1413 48.312 68.4393 59.071 68.4393H67.5V57.6213C67.5 51.0083 68.072 44.8753 68.972 41.8473C70.962 35.1453 77.181 28.9083 83.848 26.9283C90.561 24.9353 108.789 24.8773 110.421 26.8443C111.153 27.7263 111.478 31.1713 111.294 36.0943L111 43.9393L101.794 44.2263C93.237 44.4933 92.443 44.6963 90.544 47.1113C88.816 49.3073 88.5 51.1563 88.5 59.0743V68.4393L97.75 68.4543C102.838 68.4633 107.64 68.8753 108.423 69.3703C109.645 70.1443 109.605 71.3653 108.137 78.0453C107.198 82.3213 105.94 86.4093 105.342 87.1293C104.614 88.0063 101.651 88.4393 96.378 88.4393H88.5V114.547V140.655L99.75 140.218C114.78 139.634 120.763 137.351 129.088 129.027C133.378 124.736 135.887 121.168 137.588 116.939L140 110.939V69.9393V28.9393L137.312 23.2043C133.587 15.2563 130.182 11.0853 124.16 7.09626C114.142 0.459261 112.58 0.228262 76.5 0.0252617C58.625 -0.0747383 40.175 0.131262 35.5 0.482262Z" fill="black"/>
</svg>
