<svg width="142" height="140" viewBox="0 0 142 140" fill="none" xmlns="http://www.w3.org/2000/svg">
<path fill-rule="evenodd" clip-rule="evenodd" d="M25.8353 1.19213C12.7693 6.05913 3.28629 17.7391 1.01029 31.7701C-0.326711 40.0101 -0.340717 96.9851 0.992283 106.207C2.99328 120.054 10.1023 130.229 21.8013 135.988L28.4033 139.238H70.9453H113.487L120.138 135.964C128.388 131.902 135.891 124.003 139.114 115.985C141.356 110.407 141.433 109.165 141.743 73.7381C141.951 50.0041 141.673 35.0041 140.95 30.8491C138.78 18.3801 131.543 8.63312 120.391 3.15712L114.445 0.238126L71.9453 0.0421266C38.4203 -0.111873 28.6833 0.131128 25.8353 1.19213ZM40.5973 19.5081C33.5803 21.3021 27.2453 26.2211 23.5573 32.7381L20.4453 38.2381L20.1373 67.7381C19.7823 101.649 20.0523 103.417 26.7273 110.841C35.2613 120.333 34.8163 120.238 70.9453 120.238C106.762 120.238 106.493 120.292 114.584 111.514C122.025 103.442 122.445 101.154 122.445 68.7381V40.2381L119.627 34.4991C116.433 27.9951 110.53 22.6091 103.858 20.1131C100.189 18.7411 94.9023 18.4441 72.5053 18.3501C53.6643 18.2721 44.0713 18.6201 40.5973 19.5081ZM38.7493 29.7561C33.7203 32.4431 30.2283 37.3211 28.9003 43.5141C28.2003 46.7771 27.9113 57.8281 28.1183 73.4621C28.3963 94.5611 28.6993 98.7031 30.1593 101.369C32.1223 104.955 37.1463 109.452 40.8893 110.974C42.4723 111.618 53.8513 111.963 70.7893 111.881C95.0543 111.763 98.6053 111.539 102.322 109.895C107.371 107.662 111.5 103.002 112.901 97.9571C113.487 95.8481 113.936 83.1761 113.939 68.6841C113.945 43.4631 113.913 43.0661 111.462 38.1841C110.022 35.3161 107.428 32.1881 105.288 30.7381L101.596 28.2381L72.0203 28.0091C44.2383 27.7951 42.2213 27.9001 38.7493 29.7561ZM94.9453 38.7381C93.8453 39.8381 92.9453 41.4131 92.9453 42.2381C92.9453 44.3621 96.5843 47.7381 98.8743 47.7381C103.445 47.7381 105.595 41.5411 102.116 38.3931C99.6863 36.1941 97.3783 36.3051 94.9453 38.7381ZM62.3123 45.1651C56.3443 47.0321 51.6833 50.9791 48.3563 56.9841C45.8163 61.5681 45.4473 63.2581 45.4593 70.2381C45.4743 79.0811 46.8553 82.7771 52.3073 88.5761C57.6083 94.2141 62.4263 96.1891 70.9453 96.2151C77.3833 96.2341 79.1893 95.8251 83.6993 93.3271C92.7753 88.2981 96.8253 81.0461 96.9013 69.6841C97.0233 51.4731 80.2203 39.5621 62.3123 45.1651ZM62.0943 54.4341C50.8063 59.9961 50.4603 79.1481 61.5333 85.4721C66.3213 88.2051 74.5723 88.4831 79.6333 86.0821C81.5533 85.1711 84.3213 82.6161 85.7843 80.4051C91.4263 71.8801 88.2583 58.4871 79.6333 54.3941C75.1803 52.2811 66.4243 52.3011 62.0943 54.4341Z" fill="black"/>
</svg>
