<svg width="142" height="140" viewBox="0 0 142 140" fill="none" xmlns="http://www.w3.org/2000/svg">
<path fill-rule="evenodd" clip-rule="evenodd" d="M17.7802 1.13925C9.26319 4.22425 2.74017 11.5443 0.881169 20.1013C0.109169 23.6543 -0.143824 40.3253 0.0761762 73.2773L0.395176 121.277L3.36918 126.647C5.00518 129.601 7.81716 133.141 9.61716 134.514C16.3612 139.658 16.7122 139.688 71.3952 139.711C129.25 139.736 126.738 140.062 134.595 131.505C141.951 123.493 142.008 122.967 141.681 67.1462C141.415 21.7252 141.264 18.0303 139.533 14.7773C136.934 9.89125 132.11 4.98824 127.395 2.43924C123.461 0.313239 122.558 0.273253 72.3952 0.0532526C32.4062 -0.122747 20.6152 0.112251 17.7802 1.13925ZM30.2952 27.1772C27.6542 29.8182 26.8952 31.4023 26.8952 34.2773C26.8952 39.7583 32.1422 44.7773 37.8722 44.7773C43.7382 44.7773 47.8952 40.6352 47.8952 34.7882C47.8952 29.6072 46.6402 27.2143 42.9152 25.2873C38.0362 22.7643 34.1222 23.3502 30.2952 27.1772ZM86.3952 52.9692C84.7452 53.5382 81.7082 55.3233 79.6452 56.9373L75.8952 59.8712V57.4473C75.8952 53.5293 73.8242 52.6622 65.2402 52.9832L57.3952 53.2773L57.1302 82.0042L56.8642 110.731L59.1612 111.308C60.4232 111.624 64.3682 111.747 67.9262 111.58L74.3952 111.277L74.9512 93.7773C75.2572 84.1523 75.9932 75.1523 76.5862 73.7773C79.1572 67.8213 85.9712 65.6312 91.2242 69.0732C94.9732 71.5302 95.8832 76.3582 95.8892 93.8272C95.8932 104.581 96.2652 109.747 97.0952 110.577C98.6882 112.17 112.102 112.17 113.695 110.577C115.264 109.008 115.337 74.9393 113.787 67.7103C112.517 61.7883 107.342 55.2862 102.177 53.1242C98.4372 51.5582 90.7082 51.4822 86.3952 52.9692ZM30.6452 53.4473C29.6832 53.7093 28.9012 54.4533 28.9082 55.1003C28.9152 55.7473 28.8182 68.3073 28.6922 83.0113C28.5402 100.813 28.8182 110.1 29.5242 110.806C30.1472 111.429 33.8472 111.745 38.4902 111.572L46.3952 111.277V82.2773V53.2773L39.3952 53.1233C35.5452 53.0393 31.6072 53.1843 30.6452 53.4473Z" fill="black"/>
</svg>
