<svg width="1264" height="316" viewBox="0 0 1264 316" fill="none" xmlns="http://www.w3.org/2000/svg">
<path d="M274.21 0V179.73L194.04 259.9H68.3398V315.45H0V154.11L68.3398 85.7695V191.67H165.03L206.33 150.37V68.3398H0.230469L68.5801 0H274.21ZM954.151 16.71C984.711 16.71 1010.63 24.8198 1031.93 41.0195C1053.69 57.4595 1066.77 80.7203 1071.17 110.82H1011.79C1008.09 96.9304 1001.2 86.2302 991.131 78.7002C981.061 71.1803 968.731 67.4102 954.151 67.4102C934.241 67.4102 918.901 74.2404 908.141 87.9004C897.371 101.56 891.991 120.89 891.991 145.89C891.991 170.89 897.371 190.22 908.141 203.88C918.901 217.54 934.241 224.37 954.151 224.37C969.431 224.37 982.391 219.98 993.041 211.17C1003.69 202.37 1010.4 190.11 1013.18 174.36H1071.87C1068.17 206.31 1055.55 231.08 1034.02 248.67C1012.26 266.27 985.631 275.059 954.151 275.06V275.05C917.341 275.05 887.591 263.359 864.911 239.979C842.221 216.6 830.881 185.24 830.881 145.88C830.881 106.52 841.991 74.5797 864.221 51.4297C886.441 28.2797 916.421 16.71 954.151 16.71ZM482.95 22.2598C511.42 22.2598 533.761 29.7302 549.971 44.6602C566.17 59.5901 574.28 79.8999 574.28 105.6C574.28 131.3 566.171 151.61 549.971 166.54C533.761 181.47 511.43 188.939 482.95 188.939H429.131V269.5H370.44V22.2598H482.95ZM717.681 120.88C735.041 149.59 747.891 172.269 756.221 188.939C755.291 156.76 754.831 118.45 754.831 74V22.2598H810.73V269.5H747.53L687.11 170.88C668.59 140.09 655.74 117.64 648.57 103.52C649.49 135.24 649.961 173.31 649.961 217.76V269.5H594.061V22.2598H657.261L717.681 120.88ZM1150.34 217.06H1263.54V269.49H1091.66V22.2598H1150.34V217.06ZM429.12 139.279H479.12C490.69 139.279 499.66 136.39 506.03 130.6C512.39 124.81 515.58 116.48 515.58 105.6C515.58 94.7197 512.34 86.3896 505.86 80.5996C499.38 74.8197 490.46 71.9199 479.12 71.9199H429.12V139.279Z" fill="#F0EDE4"/>
</svg>
